<?xml version="1.0" encoding="UTF-8" standalone="no"?>
<svg width="325px" height="540px" viewBox="0 0 325 540" version="1.1" xmlns="http://www.w3.org/2000/svg" xmlns:xlink="http://www.w3.org/1999/xlink" xmlns:sketch="http://www.bohemiancoding.com/sketch/ns">
    <!-- Generator: Sketch 3.3.3 (12081) - http://www.bohemiancoding.com/sketch -->
    <title>nz thin</title>
    <desc>Created with Sketch.</desc>
    <defs></defs>
    <g id="Page-1" stroke="none" stroke-width="1" fill="none" fill-rule="evenodd" sketch:type="MSPage">
        <g id="nz-thin" sketch:type="MSArtboardGroup" fill="#92BDE9">
            <g id="pt-copy-0" sketch:type="MSLayerGroup" transform="translate(173.000000, 32.000000)">
                <rect id="pt" sketch:type="MSShapeGroup" x="0" y="0" width="20" height="20" rx="2"></rect>
            </g>
            <g id="pt-copy-1" sketch:type="MSLayerGroup" transform="translate(173.000000, 53.000000)">
                <rect id="pt" sketch:type="MSShapeGroup" x="0" y="0" width="20" height="20" rx="2"></rect>
            </g>
            <g id="pt-copy-2" sketch:type="MSLayerGroup" transform="translate(194.000000, 53.000000)">
                <rect id="pt" sketch:type="MSShapeGroup" x="0" y="0" width="20" height="20" rx="2"></rect>
            </g>
            <g id="pt-copy-3" sketch:type="MSLayerGroup" transform="translate(173.000000, 74.000000)">
                <rect id="pt" sketch:type="MSShapeGroup" x="0" y="0" width="20" height="20" rx="2"></rect>
            </g>
            <g id="pt-copy-4" sketch:type="MSLayerGroup" transform="translate(194.000000, 74.000000)">
                <rect id="pt" sketch:type="MSShapeGroup" x="0" y="0" width="20" height="20" rx="2"></rect>
            </g>
            <g id="pt-copy-5" sketch:type="MSLayerGroup" transform="translate(194.000000, 95.000000)">
                <rect id="pt" sketch:type="MSShapeGroup" x="0" y="0" width="20" height="20" rx="2"></rect>
            </g>
            <g id="pt-copy-6" sketch:type="MSLayerGroup" transform="translate(215.000000, 95.000000)">
                <rect id="pt" sketch:type="MSShapeGroup" x="0" y="0" width="20" height="20" rx="2"></rect>
            </g>
            <g id="pt-copy-7" sketch:type="MSLayerGroup" transform="translate(215.000000, 116.000000)">
                <rect id="pt" sketch:type="MSShapeGroup" x="0" y="0" width="20" height="20" rx="2"></rect>
            </g>
            <g id="pt-copy-8" sketch:type="MSLayerGroup" transform="translate(194.000000, 116.000000)">
                <rect id="pt" sketch:type="MSShapeGroup" x="0" y="0" width="20" height="20" rx="2"></rect>
            </g>
            <g id="pt-copy-9" sketch:type="MSLayerGroup" transform="translate(236.000000, 116.000000)">
                <rect id="pt" sketch:type="MSShapeGroup" x="0" y="0" width="20" height="20" rx="2"></rect>
            </g>
            <g id="pt-copy-12" sketch:type="MSLayerGroup" transform="translate(215.000000, 137.000000)">
                <rect id="pt" sketch:type="MSShapeGroup" x="0" y="0" width="20" height="20" rx="2"></rect>
            </g>
            <g id="pt-copy-10" sketch:type="MSLayerGroup" transform="translate(194.000000, 137.000000)">
                <rect id="pt" sketch:type="MSShapeGroup" x="0" y="0" width="20" height="20" rx="2"></rect>
            </g>
            <g id="pt-copy-11" sketch:type="MSLayerGroup" transform="translate(236.000000, 137.000000)">
                <rect id="pt" sketch:type="MSShapeGroup" x="0" y="0" width="20" height="20" rx="2"></rect>
            </g>
            <g id="pt-copy-15" sketch:type="MSLayerGroup" transform="translate(215.000000, 158.000000)">
                <rect id="pt" sketch:type="MSShapeGroup" x="0" y="0" width="20" height="20" rx="2"></rect>
            </g>
            <g id="pt-copy-13" sketch:type="MSLayerGroup" transform="translate(194.000000, 158.000000)">
                <rect id="pt" sketch:type="MSShapeGroup" x="0" y="0" width="20" height="20" rx="2"></rect>
            </g>
            <g id="pt-copy-14" sketch:type="MSLayerGroup" transform="translate(236.000000, 158.000000)">
                <rect id="pt" sketch:type="MSShapeGroup" x="0" y="0" width="20" height="20" rx="2"></rect>
            </g>
            <g id="pt-copy-18" sketch:type="MSLayerGroup" transform="translate(215.000000, 179.000000)">
                <rect id="pt" sketch:type="MSShapeGroup" x="0" y="0" width="20" height="20" rx="2"></rect>
            </g>
            <g id="pt-copy-16" sketch:type="MSLayerGroup" transform="translate(194.000000, 179.000000)">
                <rect id="pt" sketch:type="MSShapeGroup" x="0" y="0" width="20" height="20" rx="2"></rect>
            </g>
            <g id="pt-copy-19" sketch:type="MSLayerGroup" transform="translate(173.000000, 179.000000)">
                <rect id="pt" sketch:type="MSShapeGroup" x="0" y="0" width="20" height="20" rx="2"></rect>
            </g>
            <g id="pt-copy-20" sketch:type="MSLayerGroup" transform="translate(173.000000, 200.000000)">
                <rect id="pt" sketch:type="MSShapeGroup" x="0" y="0" width="20" height="20" rx="2"></rect>
            </g>
            <g id="pt-copy-21" sketch:type="MSLayerGroup" transform="translate(194.000000, 200.000000)">
                <rect id="pt" sketch:type="MSShapeGroup" x="0" y="0" width="20" height="20" rx="2"></rect>
            </g>
            <g id="pt-copy-17" sketch:type="MSLayerGroup" transform="translate(236.000000, 179.000000)">
                <rect id="pt" sketch:type="MSShapeGroup" x="0" y="0" width="20" height="20" rx="2"></rect>
            </g>
            <g id="pt-copy-34" sketch:type="MSLayerGroup" transform="translate(257.000000, 158.000000)">
                <rect id="pt" sketch:type="MSShapeGroup" x="0" y="0" width="20" height="20" rx="2"></rect>
            </g>
            <g id="pt-copy-28" sketch:type="MSLayerGroup" transform="translate(278.000000, 158.000000)">
                <rect id="pt" sketch:type="MSShapeGroup" x="0" y="0" width="20" height="20" rx="2"></rect>
            </g>
            <g id="pt-copy-32" sketch:type="MSLayerGroup" transform="translate(257.000000, 179.000000)">
                <rect id="pt" sketch:type="MSShapeGroup" x="0" y="0" width="20" height="20" rx="2"></rect>
            </g>
            <g id="pt-copy-33" sketch:type="MSLayerGroup" transform="translate(278.000000, 179.000000)">
                <rect id="pt" sketch:type="MSShapeGroup" x="0" y="0" width="20" height="20" rx="2"></rect>
            </g>
            <g id="pt-copy-36" sketch:type="MSLayerGroup" transform="translate(299.000000, 137.000000)">
                <rect id="pt" sketch:type="MSShapeGroup" x="0" y="0" width="20" height="20" rx="2"></rect>
            </g>
            <g id="pt-copy-35" sketch:type="MSLayerGroup" transform="translate(299.000000, 158.000000)">
                <rect id="pt" sketch:type="MSShapeGroup" x="0" y="0" width="20" height="20" rx="2"></rect>
            </g>
            <g id="pt-copy-24" sketch:type="MSLayerGroup" transform="translate(236.000000, 200.000000)">
                <rect id="pt" sketch:type="MSShapeGroup" x="0" y="0" width="20" height="20" rx="2"></rect>
            </g>
            <g id="pt-copy-22" sketch:type="MSLayerGroup" transform="translate(215.000000, 200.000000)">
                <rect id="pt" sketch:type="MSShapeGroup" x="0" y="0" width="20" height="20" rx="2"></rect>
            </g>
            <g id="pt-copy-23" sketch:type="MSLayerGroup" transform="translate(257.000000, 200.000000)">
                <rect id="pt" sketch:type="MSShapeGroup" x="0" y="0" width="20" height="20" rx="2"></rect>
            </g>
            <g id="pt-copy-27" sketch:type="MSLayerGroup" transform="translate(236.000000, 221.000000)">
                <rect id="pt" sketch:type="MSShapeGroup" x="0" y="0" width="20" height="20" rx="2"></rect>
            </g>
            <g id="pt-copy-25" sketch:type="MSLayerGroup" transform="translate(215.000000, 221.000000)">
                <rect id="pt" sketch:type="MSShapeGroup" x="0" y="0" width="20" height="20" rx="2"></rect>
            </g>
            <g id="pt-copy-29" sketch:type="MSLayerGroup" transform="translate(236.000000, 242.000000)">
                <rect id="pt" sketch:type="MSShapeGroup" x="0" y="0" width="20" height="20" rx="2"></rect>
            </g>
            <g id="pt-copy-30" sketch:type="MSLayerGroup" transform="translate(215.000000, 242.000000)">
                <rect id="pt" sketch:type="MSShapeGroup" x="0" y="0" width="20" height="20" rx="2"></rect>
            </g>
            <g id="pt-copy-37" sketch:type="MSLayerGroup" transform="translate(215.000000, 242.000000)">
                <rect id="pt" sketch:type="MSShapeGroup" x="0" y="0" width="20" height="20" rx="2"></rect>
            </g>
            <g id="pt-copy-41" sketch:type="MSLayerGroup" transform="translate(131.000000, 242.000000)">
                <rect id="pt" sketch:type="MSShapeGroup" x="0" y="0" width="20" height="20" rx="2"></rect>
            </g>
            <g id="pt-copy-42" sketch:type="MSLayerGroup" transform="translate(131.000000, 263.000000)">
                <rect id="pt" sketch:type="MSShapeGroup" x="0" y="0" width="20" height="20" rx="2"></rect>
            </g>
            <g id="pt-copy-43" sketch:type="MSLayerGroup" transform="translate(110.000000, 263.000000)">
                <rect id="pt" sketch:type="MSShapeGroup" x="0" y="0" width="20" height="20" rx="2"></rect>
            </g>
            <g id="pt-copy-44" sketch:type="MSLayerGroup" transform="translate(110.000000, 284.000000)">
                <rect id="pt" sketch:type="MSShapeGroup" x="0" y="0" width="20" height="20" rx="2"></rect>
            </g>
            <g id="pt-copy-45" sketch:type="MSLayerGroup" transform="translate(131.000000, 284.000000)">
                <rect id="pt" sketch:type="MSShapeGroup" x="0" y="0" width="20" height="20" rx="2"></rect>
            </g>
            <g id="pt-copy-54" sketch:type="MSLayerGroup" transform="translate(131.000000, 305.000000)">
                <rect id="pt" sketch:type="MSShapeGroup" x="0" y="0" width="20" height="20" rx="2"></rect>
            </g>
            <g id="pt-copy-51" sketch:type="MSLayerGroup" transform="translate(110.000000, 305.000000)">
                <rect id="pt" sketch:type="MSShapeGroup" x="0" y="0" width="20" height="20" rx="2"></rect>
            </g>
            <g id="pt-copy-52" sketch:type="MSLayerGroup" transform="translate(110.000000, 326.000000)">
                <rect id="pt" sketch:type="MSShapeGroup" x="0" y="0" width="20" height="20" rx="2"></rect>
            </g>
            <g id="pt-copy-60" sketch:type="MSLayerGroup" transform="translate(89.000000, 326.000000)">
                <rect id="pt" sketch:type="MSShapeGroup" x="0" y="0" width="20" height="20" rx="2"></rect>
            </g>
            <g id="pt-copy-53" sketch:type="MSLayerGroup" transform="translate(131.000000, 326.000000)">
                <rect id="pt" sketch:type="MSShapeGroup" x="0" y="0" width="20" height="20" rx="2"></rect>
            </g>
            <g id="pt-copy-59" sketch:type="MSLayerGroup" transform="translate(110.000000, 347.000000)">
                <rect id="pt" sketch:type="MSShapeGroup" x="0" y="0" width="20" height="20" rx="2"></rect>
            </g>
            <g id="pt-copy-56" sketch:type="MSLayerGroup" transform="translate(89.000000, 347.000000)">
                <rect id="pt" sketch:type="MSShapeGroup" x="0" y="0" width="20" height="20" rx="2"></rect>
            </g>
            <g id="pt-copy-61" sketch:type="MSLayerGroup" transform="translate(68.000000, 347.000000)">
                <rect id="pt" sketch:type="MSShapeGroup" x="0" y="0" width="20" height="20" rx="2"></rect>
            </g>
            <g id="pt-copy-57" sketch:type="MSLayerGroup" transform="translate(89.000000, 368.000000)">
                <rect id="pt" sketch:type="MSShapeGroup" x="0" y="0" width="20" height="20" rx="2"></rect>
            </g>
            <g id="pt-copy-63" sketch:type="MSLayerGroup" transform="translate(89.000000, 389.000000)">
                <rect id="pt" sketch:type="MSShapeGroup" x="0" y="0" width="20" height="20" rx="2"></rect>
            </g>
            <g id="pt-copy-62" sketch:type="MSLayerGroup" transform="translate(89.000000, 410.000000)">
                <rect id="pt" sketch:type="MSShapeGroup" x="0" y="0" width="20" height="20" rx="2"></rect>
            </g>
            <g id="pt-copy-58" sketch:type="MSLayerGroup" transform="translate(110.000000, 368.000000)">
                <rect id="pt" sketch:type="MSShapeGroup" x="0" y="0" width="20" height="20" rx="2"></rect>
            </g>
            <g id="pt-copy-67" sketch:type="MSLayerGroup" transform="translate(68.000000, 368.000000)">
                <rect id="pt" sketch:type="MSShapeGroup" x="0" y="0" width="20" height="20" rx="2"></rect>
            </g>
            <g id="pt-copy-64" sketch:type="MSLayerGroup" transform="translate(47.000000, 368.000000)">
                <rect id="pt" sketch:type="MSShapeGroup" x="0" y="0" width="20" height="20" rx="2"></rect>
            </g>
            <g id="pt-copy-65" sketch:type="MSLayerGroup" transform="translate(47.000000, 389.000000)">
                <rect id="pt" sketch:type="MSShapeGroup" x="0" y="0" width="20" height="20" rx="2"></rect>
            </g>
            <g id="pt-copy-76" sketch:type="MSLayerGroup" transform="translate(26.000000, 389.000000)">
                <rect id="pt" sketch:type="MSShapeGroup" x="0" y="0" width="20" height="20" rx="2"></rect>
            </g>
            <g id="pt-copy-66" sketch:type="MSLayerGroup" transform="translate(68.000000, 389.000000)">
                <rect id="pt" sketch:type="MSShapeGroup" x="0" y="0" width="20" height="20" rx="2"></rect>
            </g>
            <g id="pt-copy-71" sketch:type="MSLayerGroup" transform="translate(68.000000, 410.000000)">
                <rect id="pt" sketch:type="MSShapeGroup" x="0" y="0" width="20" height="20" rx="2"></rect>
            </g>
            <g id="pt-copy-68" sketch:type="MSLayerGroup" transform="translate(47.000000, 410.000000)">
                <rect id="pt" sketch:type="MSShapeGroup" x="0" y="0" width="20" height="20" rx="2"></rect>
            </g>
            <g id="pt-copy-69" sketch:type="MSLayerGroup" transform="translate(47.000000, 431.000000)">
                <rect id="pt" sketch:type="MSShapeGroup" x="0" y="0" width="20" height="20" rx="2"></rect>
            </g>
            <g id="pt-copy-77" sketch:type="MSLayerGroup" transform="translate(47.000000, 452.000000)">
                <rect id="pt" sketch:type="MSShapeGroup" x="0" y="0" width="20" height="20" rx="2"></rect>
            </g>
            <g id="pt-copy-79" sketch:type="MSLayerGroup" transform="translate(26.000000, 473.000000)">
                <rect id="pt" sketch:type="MSShapeGroup" x="0" y="0" width="20" height="20" rx="2"></rect>
            </g>
            <g id="pt-copy-70" sketch:type="MSLayerGroup" transform="translate(68.000000, 431.000000)">
                <rect id="pt" sketch:type="MSShapeGroup" x="0" y="0" width="20" height="20" rx="2"></rect>
            </g>
            <g id="pt-copy-75" sketch:type="MSLayerGroup" transform="translate(26.000000, 410.000000)">
                <rect id="pt" sketch:type="MSShapeGroup" x="0" y="0" width="20" height="20" rx="2"></rect>
            </g>
            <g id="pt-copy-72" sketch:type="MSLayerGroup" transform="translate(5.000000, 410.000000)">
                <rect id="pt" sketch:type="MSShapeGroup" x="0" y="0" width="20" height="20" rx="2"></rect>
            </g>
            <g id="pt-copy-73" sketch:type="MSLayerGroup" transform="translate(5.000000, 431.000000)">
                <rect id="pt" sketch:type="MSShapeGroup" x="0" y="0" width="20" height="20" rx="2"></rect>
            </g>
            <g id="pt-copy-74" sketch:type="MSLayerGroup" transform="translate(26.000000, 431.000000)">
                <rect id="pt" sketch:type="MSShapeGroup" x="0" y="0" width="20" height="20" rx="2"></rect>
            </g>
            <g id="pt-copy-55" sketch:type="MSLayerGroup" transform="translate(131.000000, 347.000000)">
                <rect id="pt" sketch:type="MSShapeGroup" x="0" y="0" width="20" height="20" rx="2"></rect>
            </g>
            <g id="pt-copy-49" sketch:type="MSLayerGroup" transform="translate(173.000000, 263.000000)">
                <rect id="pt" sketch:type="MSShapeGroup" x="0" y="0" width="20" height="20" rx="2"></rect>
            </g>
            <g id="pt-copy-46" sketch:type="MSLayerGroup" transform="translate(152.000000, 263.000000)">
                <rect id="pt" sketch:type="MSShapeGroup" x="0" y="0" width="20" height="20" rx="2"></rect>
            </g>
            <g id="pt-copy-47" sketch:type="MSLayerGroup" transform="translate(152.000000, 284.000000)">
                <rect id="pt" sketch:type="MSShapeGroup" x="0" y="0" width="20" height="20" rx="2"></rect>
            </g>
            <g id="pt-copy-50" sketch:type="MSLayerGroup" transform="translate(152.000000, 305.000000)">
                <rect id="pt" sketch:type="MSShapeGroup" x="0" y="0" width="20" height="20" rx="2"></rect>
            </g>
            <g id="pt-copy-48" sketch:type="MSLayerGroup" transform="translate(173.000000, 284.000000)">
                <rect id="pt" sketch:type="MSShapeGroup" x="0" y="0" width="20" height="20" rx="2"></rect>
            </g>
            <g id="pt-copy-31" sketch:type="MSLayerGroup" transform="translate(215.000000, 263.000000)">
                <rect id="pt" sketch:type="MSShapeGroup" x="0" y="0" width="20" height="20" rx="2"></rect>
            </g>
            <g id="pt-copy-26" sketch:type="MSLayerGroup" transform="translate(257.000000, 221.000000)">
                <rect id="pt" sketch:type="MSShapeGroup" x="0" y="0" width="20" height="20" rx="2"></rect>
            </g>
        </g>
    </g>
</svg>