<?xml version="1.0" encoding="UTF-8" standalone="no"?>
<svg width="57px" height="57px" viewBox="0 0 57 57" version="1.1" xmlns="http://www.w3.org/2000/svg" xmlns:xlink="http://www.w3.org/1999/xlink" xmlns:sketch="http://www.bohemiancoding.com/sketch/ns">
    <!-- Generator: Sketch 3.3 (11970) - http://www.bohemiancoding.com/sketch -->
    <title>pitchhub</title>
    <desc>Created with Sketch.</desc>
    <defs>
        <circle id="path-1" cx="28.5" cy="28.5" r="28.5"></circle>
    </defs>
    <g id="Page-1" stroke="none" stroke-width="1" fill="none" fill-rule="evenodd" sketch:type="MSPage">
        <g id="pitchhub" sketch:type="MSArtboardGroup">
            <g id="logo" sketch:type="MSLayerGroup">
                <mask id="mask-2" sketch:name="bg" fill="white">
                    <use xlink:href="#path-1"></use>
                </mask>
                <use id="bg" fill="#22A7F0" sketch:type="MSShapeGroup" xlink:href="#path-1"></use>
                <path d="M14.0071811,25.2987634 C14.0071811,25.2987634 17.7671811,31.8797634 18.1151811,32.5217634 C18.4581811,33.1657634 18.4101811,33.5617634 18.4101811,33.5617634 L18.6571811,38.6097634 C19.6441811,45.4387634 22.9121811,47.3187634 22.9121811,47.3187634 L21.9081811,75.5437634 L34.8661811,76.6747634 L33.9941811,46.7247634 C33.9941811,46.7247634 34.8861811,46.1317634 36.6651811,45.0397634 C38.4461811,43.9527634 40.1301811,41.2827634 40.5251811,40.3897634 C40.9211811,39.4997634 41.8121811,37.0257634 44.3851811,34.5507634 C46.9571811,32.0787634 47.3531811,33.0667634 47.9471811,31.6817634 C48.5461811,30.2967634 46.5661811,29.7027634 46.5661811,29.7027634 C46.5661811,29.7027634 41.2211811,29.3057634 37.4631811,35.3447634 C37.4631811,35.3447634 37.3241811,35.3277634 37.0841811,35.3197634 L36.9951811,35.1177634 C37.0531811,35.1137634 37.0841811,35.1127634 37.0841811,35.1127634 C37.0531811,35.1127634 37.0241811,35.1137634 36.9941811,35.1137634 L36.6231811,34.2537634 C36.6231811,34.2537634 36.1761811,31.9777634 36.1761811,31.0367634 C36.1761811,30.0987634 36.4731811,29.1577634 36.4731811,29.1577634 L39.6901811,18.0737634 C39.6901811,18.0737634 40.3331811,16.1947634 38.6501811,15.5507634 C36.9671811,14.9067634 36.2751811,16.4417634 36.2751811,16.4417634 C36.2751811,16.4417634 32.6631811,26.4857634 32.2691811,27.7237634 C31.8721811,28.9587634 30.9811811,27.5257634 30.9811811,27.5257634 L31.1781811,14.6607634 C31.1781811,14.6607634 31.4261811,12.5317634 29.1501811,12.3337634 C26.8731811,12.1357634 27.0711811,15.4517634 27.0711811,15.4517634 C27.0711811,15.4517634 26.8731811,26.5347634 26.8241811,27.8227634 C26.7761811,29.1107634 25.9331811,27.9707634 25.9331811,27.9707634 C25.9331811,27.9707634 23.0151811,17.6797634 22.7161811,16.5907634 C22.4211811,15.5017634 21.9251811,14.3147634 20.2921811,14.5617634 C18.6601811,14.8097634 19.3041811,18.3217634 19.3041811,18.3217634 C19.3041811,18.3217634 21.8281811,28.8117634 21.9761811,29.6047634 C22.1261811,30.3957634 21.5801811,30.2477634 21.5801811,30.2477634 C21.5801811,30.2477634 16.6331811,22.5277634 16.2361811,21.9837634 C15.8381811,21.4397634 15.0471811,20.2527634 13.5131811,21.0927634 C11.9801811,21.9347634 14.0071811,25.2987634 14.0071811,25.2987634 L14.0071811,25.2987634 Z M36.9941811,35.1157634 L36.9951811,35.1187634 C36.2101811,35.1657634 30.3241811,35.7017634 28.5781811,40.9687634 C28.4681811,41.1987634 28.3631811,41.4297634 28.2591811,41.6777634 C28.2591811,41.6777634 27.8701811,35.0507634 36.9941811,35.1157634 L36.9941811,35.1157634 Z" id="hand" fill="#FFFFFF" sketch:type="MSShapeGroup" mask="url(#mask-2)"></path>
            </g>
        </g>
    </g>
</svg>